<svg xmlns="http://www.w3.org/2000/svg" width="32" height="32" viewBox="0 0 40 32"><path d="M34.009,36.65A22.4,22.4,0,0,0,19.991,32C9.063,32,.17,39.114.17,47.857a13.517,13.517,0,0,0,2.643,7.929L0,64l10.509-2.207a23.768,23.768,0,0,0,9.473,1.929h.009C30.911,63.721,40,56.607,40,47.864,40,43.629,37.75,39.65,34.009,36.65ZM19.991,61.05A19.67,19.67,0,0,1,11.6,59.214l-.6-.286L4.768,60.236l1.661-4.864-.393-.5a11.284,11.284,0,0,1-2.518-7.014c0-7.264,7.393-13.179,16.482-13.179a18.592,18.592,0,0,1,11.643,3.864c3.107,2.493,5.018,5.8,5.009,9.321C36.652,55.136,29.071,61.05,19.991,61.05Zm9.036-9.871c-.491-.2-2.929-1.157-3.384-1.286s-.786-.2-1.116.2-1.277,1.286-1.571,1.557a.884.884,0,0,1-1.071.1c-2.911-1.164-4.821-2.079-6.741-4.714-.509-.7.509-.65,1.455-2.164a.609.609,0,0,0-.045-.693c-.125-.2-1.116-2.15-1.527-2.943a1.01,1.01,0,0,0-1.116-.679c-.286-.014-.616-.014-.946-.014a2.069,2.069,0,0,0-1.321.493,4.147,4.147,0,0,0-1.732,3.307c0,1.95,1.777,3.836,2.018,4.1a20.973,20.973,0,0,0,8.464,5.986c3.143,1.086,4.375,1.179,5.946.993.955-.114,2.929-.957,3.339-1.886a2.7,2.7,0,0,0,.286-1.886C29.848,51.471,29.518,51.371,29.027,51.179Z" transform="translate(0 -32)" fill="#ef6c00"/></svg>